<?xml version="1.0" encoding="UTF-8" standalone="no"?>
<!DOCTYPE svg PUBLIC "-//W3C//DTD SVG 1.1//EN"
 "http://www.w3.org/Graphics/SVG/1.1/DTD/svg11.dtd">
<!-- Generated by graphviz version 2.40.1 (20161225.0304)
 -->
<!-- Title: nodes Pages: 1 -->
<svg width="698pt" height="399pt"
 viewBox="0.00 0.00 698.10 399.20" xmlns="http://www.w3.org/2000/svg" xmlns:xlink="http://www.w3.org/1999/xlink">
<g id="graph0" class="graph" transform="scale(1 1) rotate(0) translate(4 395.2)">
<title>nodes</title>
<polygon fill="#ffffff" stroke="transparent" points="-4,4 -4,-395.2 694.1001,-395.2 694.1001,4 -4,4"/>
<!-- 0 -->
<g id="node1" class="node">
<title>0</title>
<polygon fill="none" stroke="#000000" points="564.8341,-391.2 474.0423,-391.2 474.0423,-355.2 564.8341,-355.2 564.8341,-391.2"/>
<text text-anchor="middle" x="519.4382" y="-369" font-family="Times,serif" font-size="14.00" fill="#000000"> X.1 &lt;= 0.93 </text>
</g>
<!-- 1 -->
<g id="node2" class="node">
<title>1</title>
<polygon fill="none" stroke="#000000" points="508.8341,-308 418.0423,-308 418.0423,-272 508.8341,-272 508.8341,-308"/>
<text text-anchor="middle" x="463.4382" y="-285.8" font-family="Times,serif" font-size="14.00" fill="#000000"> X.2 &lt;= 0.58 </text>
</g>
<!-- 0&#45;&gt;1 -->
<g id="edge1" class="edge">
<title>0&#45;&gt;1</title>
<path fill="none" stroke="#000000" d="M507.287,-355.1468C499.6552,-343.8081 489.681,-328.9892 481.1739,-316.3502"/>
<polygon fill="#000000" stroke="#000000" points="484.053,-314.3595 475.5657,-308.0179 478.2459,-318.2682 484.053,-314.3595"/>
<text text-anchor="middle" x="470.7713" y="-328.3539" font-family="Times,serif" font-size="14.00" fill="#000000">True</text>
</g>
<!-- 2 -->
<g id="node3" class="node">
<title>2</title>
<polygon fill="#c1b2ff" stroke="#c1b2ff" points="626.2625,-319.4014 526.6139,-319.4014 526.6139,-260.5986 626.2625,-260.5986 626.2625,-319.4014"/>
<text text-anchor="middle" x="576.4382" y="-302.6" font-family="Times,serif" font-size="14.00" fill="#000000">size = &#160;22 </text>
<text text-anchor="middle" x="576.4382" y="-285.8" font-family="Times,serif" font-size="14.00" fill="#000000"> avg_Y = 0.39</text>
<text text-anchor="middle" x="576.4382" y="-269" font-family="Times,serif" font-size="14.00" fill="#000000">avg_W = 0.64 </text>
</g>
<!-- 0&#45;&gt;2 -->
<g id="edge2" class="edge">
<title>0&#45;&gt;2</title>
<path fill="none" stroke="#000000" d="M531.8064,-355.1468C537.327,-347.0886 544.0519,-337.2726 550.5891,-327.7306"/>
<polygon fill="#000000" stroke="#000000" points="553.4862,-329.6946 556.2506,-319.4668 547.7114,-325.7383 553.4862,-329.6946"/>
<text text-anchor="middle" x="560.843" y="-339.8413" font-family="Times,serif" font-size="14.00" fill="#000000">False</text>
</g>
<!-- 3 -->
<g id="node4" class="node">
<title>3</title>
<polygon fill="none" stroke="#000000" points="390.8341,-224.8 300.0423,-224.8 300.0423,-188.8 390.8341,-188.8 390.8341,-224.8"/>
<text text-anchor="middle" x="345.4382" y="-202.6" font-family="Times,serif" font-size="14.00" fill="#000000"> X.6 &lt;= 0.39 </text>
</g>
<!-- 1&#45;&gt;3 -->
<g id="edge3" class="edge">
<title>1&#45;&gt;3</title>
<path fill="none" stroke="#000000" d="M437.834,-271.9468C420.6701,-259.8449 397.8839,-243.7786 379.2348,-230.6295"/>
<polygon fill="#000000" stroke="#000000" points="381.1821,-227.72 370.9925,-224.8179 377.1484,-233.4409 381.1821,-227.72"/>
</g>
<!-- 4 -->
<g id="node5" class="node">
<title>4</title>
<polygon fill="none" stroke="#000000" points="568.8341,-224.8 478.0423,-224.8 478.0423,-188.8 568.8341,-188.8 568.8341,-224.8"/>
<text text-anchor="middle" x="523.4382" y="-202.6" font-family="Times,serif" font-size="14.00" fill="#000000"> X.2 &lt;= 1.35 </text>
</g>
<!-- 1&#45;&gt;4 -->
<g id="edge4" class="edge">
<title>1&#45;&gt;4</title>
<path fill="none" stroke="#000000" d="M476.4573,-271.9468C484.6343,-260.6081 495.321,-245.7892 504.4356,-233.1502"/>
<polygon fill="#000000" stroke="#000000" points="507.4341,-234.9761 510.4445,-224.8179 501.7564,-230.8816 507.4341,-234.9761"/>
</g>
<!-- 5 -->
<g id="node6" class="node">
<title>5</title>
<polygon fill="none" stroke="#000000" points="213.8341,-141.6 123.0423,-141.6 123.0423,-105.6 213.8341,-105.6 213.8341,-141.6"/>
<text text-anchor="middle" x="168.4382" y="-119.4" font-family="Times,serif" font-size="14.00" fill="#000000"> X.9 &lt;= 0.41 </text>
</g>
<!-- 3&#45;&gt;5 -->
<g id="edge5" class="edge">
<title>3&#45;&gt;5</title>
<path fill="none" stroke="#000000" d="M307.0318,-188.7468C280.3583,-176.2088 244.6324,-159.4156 216.1338,-146.0196"/>
<polygon fill="#000000" stroke="#000000" points="217.3086,-142.7045 206.7696,-141.6179 214.3307,-149.0395 217.3086,-142.7045"/>
</g>
<!-- 6 -->
<g id="node7" class="node">
<title>6</title>
<polygon fill="none" stroke="#000000" points="390.8341,-141.6 300.0423,-141.6 300.0423,-105.6 390.8341,-105.6 390.8341,-141.6"/>
<text text-anchor="middle" x="345.4382" y="-119.4" font-family="Times,serif" font-size="14.00" fill="#000000"> X.8 &lt;= 0.22 </text>
</g>
<!-- 3&#45;&gt;6 -->
<g id="edge6" class="edge">
<title>3&#45;&gt;6</title>
<path fill="none" stroke="#000000" d="M345.4382,-188.7468C345.4382,-177.9532 345.4382,-164.0061 345.4382,-151.7876"/>
<polygon fill="#000000" stroke="#000000" points="348.9383,-151.6179 345.4382,-141.6179 341.9383,-151.618 348.9383,-151.6179"/>
</g>
<!-- 7 -->
<g id="node12" class="node">
<title>7</title>
<polygon fill="none" stroke="#000000" points="568.8341,-141.6 478.0423,-141.6 478.0423,-105.6 568.8341,-105.6 568.8341,-141.6"/>
<text text-anchor="middle" x="523.4382" y="-119.4" font-family="Times,serif" font-size="14.00" fill="#000000"> X.2 &lt;= 0.91 </text>
</g>
<!-- 4&#45;&gt;7 -->
<g id="edge11" class="edge">
<title>4&#45;&gt;7</title>
<path fill="none" stroke="#000000" d="M523.4382,-188.7468C523.4382,-177.9532 523.4382,-164.0061 523.4382,-151.7876"/>
<polygon fill="#000000" stroke="#000000" points="526.9383,-151.6179 523.4382,-141.6179 519.9383,-151.618 526.9383,-151.6179"/>
</g>
<!-- 8 -->
<g id="node13" class="node">
<title>8</title>
<polygon fill="#c1b2ff" stroke="#c1b2ff" points="686.2625,-153.0014 586.6139,-153.0014 586.6139,-94.1986 686.2625,-94.1986 686.2625,-153.0014"/>
<text text-anchor="middle" x="636.4382" y="-136.2" font-family="Times,serif" font-size="14.00" fill="#000000">size = &#160;11 </text>
<text text-anchor="middle" x="636.4382" y="-119.4" font-family="Times,serif" font-size="14.00" fill="#000000"> avg_Y = 1.42</text>
<text text-anchor="middle" x="636.4382" y="-102.6" font-family="Times,serif" font-size="14.00" fill="#000000">avg_W = 0.45 </text>
</g>
<!-- 4&#45;&gt;8 -->
<g id="edge12" class="edge">
<title>4&#45;&gt;8</title>
<path fill="none" stroke="#000000" d="M547.9575,-188.7468C559.7865,-180.0374 574.404,-169.2748 588.3265,-159.0238"/>
<polygon fill="#000000" stroke="#000000" points="590.4397,-161.8143 596.4172,-153.0668 586.2893,-156.1774 590.4397,-161.8143"/>
</g>
<!-- 9 -->
<g id="node8" class="node">
<title>9</title>
<polygon fill="#c1b2ff" stroke="#c1b2ff" points="100.8147,-58.6014 .0617,-58.6014 .0617,.2014 100.8147,.2014 100.8147,-58.6014"/>
<text text-anchor="middle" x="50.4382" y="-41.8" font-family="Times,serif" font-size="14.00" fill="#000000">size = &#160;33 </text>
<text text-anchor="middle" x="50.4382" y="-25" font-family="Times,serif" font-size="14.00" fill="#000000"> avg_Y = &#45;0.65</text>
<text text-anchor="middle" x="50.4382" y="-8.2" font-family="Times,serif" font-size="14.00" fill="#000000">avg_W = 0.39 </text>
</g>
<!-- 5&#45;&gt;9 -->
<g id="edge7" class="edge">
<title>5&#45;&gt;9</title>
<path fill="none" stroke="#000000" d="M145.6866,-105.3987C131.4133,-93.9801 112.5189,-78.8646 95.3237,-65.1084"/>
<polygon fill="#000000" stroke="#000000" points="97.0418,-62.0007 87.0466,-58.4868 92.6689,-67.4668 97.0418,-62.0007"/>
</g>
<!-- 10 -->
<g id="node9" class="node">
<title>10</title>
<polygon fill="#c1b2ff" stroke="#c1b2ff" points="218.2625,-58.6014 118.6139,-58.6014 118.6139,.2014 218.2625,.2014 218.2625,-58.6014"/>
<text text-anchor="middle" x="168.4382" y="-41.8" font-family="Times,serif" font-size="14.00" fill="#000000">size = &#160;19 </text>
<text text-anchor="middle" x="168.4382" y="-25" font-family="Times,serif" font-size="14.00" fill="#000000"> avg_Y = 0.15</text>
<text text-anchor="middle" x="168.4382" y="-8.2" font-family="Times,serif" font-size="14.00" fill="#000000">avg_W = 0.53 </text>
</g>
<!-- 5&#45;&gt;10 -->
<g id="edge8" class="edge">
<title>5&#45;&gt;10</title>
<path fill="none" stroke="#000000" d="M168.4382,-105.3987C168.4382,-94.9143 168.4382,-81.3133 168.4382,-68.5095"/>
<polygon fill="#000000" stroke="#000000" points="171.9383,-68.4867 168.4382,-58.4868 164.9383,-68.4868 171.9383,-68.4867"/>
</g>
<!-- 11 -->
<g id="node10" class="node">
<title>11</title>
<polygon fill="#c1b2ff" stroke="#c1b2ff" points="336.8147,-58.6014 236.0617,-58.6014 236.0617,.2014 336.8147,.2014 336.8147,-58.6014"/>
<text text-anchor="middle" x="286.4382" y="-41.8" font-family="Times,serif" font-size="14.00" fill="#000000">size = &#160;16 </text>
<text text-anchor="middle" x="286.4382" y="-25" font-family="Times,serif" font-size="14.00" fill="#000000"> avg_Y = &#45;0.94</text>
<text text-anchor="middle" x="286.4382" y="-8.2" font-family="Times,serif" font-size="14.00" fill="#000000">avg_W = 0.5 </text>
</g>
<!-- 6&#45;&gt;11 -->
<g id="edge9" class="edge">
<title>6&#45;&gt;11</title>
<path fill="none" stroke="#000000" d="M334.0624,-105.3987C327.2501,-94.4991 318.3326,-80.2311 310.0583,-66.9922"/>
<polygon fill="#000000" stroke="#000000" points="313.0105,-65.1117 304.7424,-58.4868 307.0745,-68.8218 313.0105,-65.1117"/>
</g>
<!-- 12 -->
<g id="node11" class="node">
<title>12</title>
<polygon fill="#c1b2ff" stroke="#c1b2ff" points="455.8147,-58.6014 355.0617,-58.6014 355.0617,.2014 455.8147,.2014 455.8147,-58.6014"/>
<text text-anchor="middle" x="405.4382" y="-41.8" font-family="Times,serif" font-size="14.00" fill="#000000">size = &#160;7 </text>
<text text-anchor="middle" x="405.4382" y="-25" font-family="Times,serif" font-size="14.00" fill="#000000"> avg_Y = &#45;1.13</text>
<text text-anchor="middle" x="405.4382" y="-8.2" font-family="Times,serif" font-size="14.00" fill="#000000">avg_W = 0.43 </text>
</g>
<!-- 6&#45;&gt;12 -->
<g id="edge10" class="edge">
<title>6&#45;&gt;12</title>
<path fill="none" stroke="#000000" d="M357.0068,-105.3987C363.9345,-94.4991 373.0032,-80.2311 381.4177,-66.9922"/>
<polygon fill="#000000" stroke="#000000" points="384.4134,-68.8038 386.8237,-58.4868 378.5057,-65.0489 384.4134,-68.8038"/>
</g>
<!-- 13 -->
<g id="node14" class="node">
<title>13</title>
<polygon fill="#c1b2ff" stroke="#c1b2ff" points="573.2625,-58.6014 473.6139,-58.6014 473.6139,.2014 573.2625,.2014 573.2625,-58.6014"/>
<text text-anchor="middle" x="523.4382" y="-41.8" font-family="Times,serif" font-size="14.00" fill="#000000">size = &#160;8 </text>
<text text-anchor="middle" x="523.4382" y="-25" font-family="Times,serif" font-size="14.00" fill="#000000"> avg_Y = 0.96</text>
<text text-anchor="middle" x="523.4382" y="-8.2" font-family="Times,serif" font-size="14.00" fill="#000000">avg_W = 0.38 </text>
</g>
<!-- 7&#45;&gt;13 -->
<g id="edge13" class="edge">
<title>7&#45;&gt;13</title>
<path fill="none" stroke="#000000" d="M523.4382,-105.3987C523.4382,-94.9143 523.4382,-81.3133 523.4382,-68.5095"/>
<polygon fill="#000000" stroke="#000000" points="526.9383,-68.4867 523.4382,-58.4868 519.9383,-68.4868 526.9383,-68.4867"/>
</g>
<!-- 14 -->
<g id="node15" class="node">
<title>14</title>
<polygon fill="#c1b2ff" stroke="#c1b2ff" points="690.2625,-58.6014 590.6139,-58.6014 590.6139,.2014 690.2625,.2014 690.2625,-58.6014"/>
<text text-anchor="middle" x="640.4382" y="-41.8" font-family="Times,serif" font-size="14.00" fill="#000000">size = &#160;9 </text>
<text text-anchor="middle" x="640.4382" y="-25" font-family="Times,serif" font-size="14.00" fill="#000000"> avg_Y = 1.29</text>
<text text-anchor="middle" x="640.4382" y="-8.2" font-family="Times,serif" font-size="14.00" fill="#000000">avg_W = 0.44 </text>
</g>
<!-- 7&#45;&gt;14 -->
<g id="edge14" class="edge">
<title>7&#45;&gt;14</title>
<path fill="none" stroke="#000000" d="M545.997,-105.3987C560.1493,-93.9801 578.8836,-78.8646 595.9331,-65.1084"/>
<polygon fill="#000000" stroke="#000000" points="598.5551,-67.4901 604.14,-58.4868 594.1595,-62.0422 598.5551,-67.4901"/>
</g>
</g>
</svg>
